<svg id="Layer_1" data-name="Layer 1" xmlns="http://www.w3.org/2000/svg" viewBox="0 0 56 123"><defs><style>.cls-1{fill:#471ca5;}</style></defs><title>a</title><path class="cls-1" d="M47.43,95.54a2.84,2.84,0,1,0,5.67,0V53.6c0-4.67,0-6.49-6.54-6.59H26.79a25.11,25.11,0,1,0,0,50.21H38.16V91.48c-1.93,0-6.56-.05-11.63-.05a19.06,19.06,0,0,1,0-38.11l20,0c.83,0,.88.3.88,3.22Z"/><path class="cls-1" d="M40.1,95.54a2.84,2.84,0,1,0,5.67,0V58.2c0-2.93-.12-2.93-2.89-2.93H26.61a17.18,17.18,0,0,0,0,34.36H38.14V83.71l-11.55.12a11.43,11.43,0,0,1,0-22.86l11.83.22c1.17,0,1.67.21,1.67,3.13Z"/></svg>