<svg id="Layer_1" data-name="Layer 1" xmlns="http://www.w3.org/2000/svg" viewBox="0 0 639.33 123"><defs><style>.cls-1{fill:#471ca5;}</style></defs><title>entertainment</title>
	<path class="cls-1" d="M54.78,69a23.12,23.12,0,1,1-3.39-10.8l-33,10A13,13,0,0,0,19,74.1L59.2,61.93a28.77,28.77,0,1,0,1.09,5.38Z"/>
	<path class="cls-1" d="M46.87,71.38A15.18,15.18,0,1,1,27.35,55.56a15.66,15.66,0,0,1,7.09-.42c-7.29.48-12.71,3.55-15.54,10.83L48.27,57A21.26,21.26,0,1,0,52.9,69.54Z"/>
	<path class="cls-1" d="M102.53,95.69a2.84,2.84,0,1,0,5.67,0v-19A21.21,21.21,0,0,0,87,55.49l-13.62-.07c-2.77,0-2.9,0-2.89,2.93V95.6a2.84,2.84,0,1,0,5.67,0V64.51c0-2.92.5-3.12,1.67-3.12L87,61.26A15.44,15.44,0,0,1,102.35,76.7Z"/>
	<path class="cls-1" d="M110.77,95.6a2.84,2.84,0,1,0,5.67,0V76.77A28.83,28.83,0,0,0,87.6,47.94s-11.28,0-18.46,0c-4.08,0-6.38,1.92-6.38,6.58V95.69a2.84,2.84,0,1,0,5.67,0V57c0-2.92,0-3.22,3-3.22l16.21.1a22.91,22.91,0,0,1,22.91,22.91Z"/>
	<line class="cls-1" x1="134.18" y1="44.02" x2="134.18" y2="42.27"/>
	<path class="cls-1" d="M209,63.43V95.6a2.84,2.84,0,1,0,5.67,0l.08-32.16c.05-3.1,9.09-4.32,12.13,2.64l5.43-1.64C227.44,51.94,209.37,55.07,209,63.43Z"/>
	<path class="cls-1" d="M201.35,63.52V95.69a2.84,2.84,0,1,0,5.67,0l0-32.13c0-11.4,21.59-13.44,27.58.18l5.56-1.68C232.6,42.59,201.35,44.86,201.35,63.52Z"/>
	<path class="cls-1" d="M191.4,68.62A23.12,23.12,0,1,1,188,57.82l-33,10a13,13,0,0,0,.62,5.91l40.22-12.17A28.77,28.77,0,1,0,196.92,67Z"/>
	<path class="cls-1" d="M183.5,71A15.18,15.18,0,1,1,164,55.2a15.66,15.66,0,0,1,7.09-.42c-7.29.48-12.71,3.55-15.54,10.83l29.38-8.93a21.26,21.26,0,1,0,4.62,12.51Z"/>
	<path class="cls-1" d="M251.68,37.86V95.54a2.84,2.84,0,1,0,5.67,0v-52h17l-5.73-5.73Z"/>
	<path class="cls-1" d="M257.34,30.44V8.37c0-4.67,0-6.49-6.54-6.59s-6.46,1.92-6.46,6.59V95.54a2.84,2.84,0,1,0,5.67,0V10.83c0-2.92,0-3.22.79-3.22s.88.3.88,3.22V36.11H266.9l-5.65-5.65Z"/>
	<line class="cls-1" x1="153.51" y1="27.02" x2="153.51" y2="84.7"/>
	<path class="cls-1" d="M127.88,37.86V95.54a2.84,2.84,0,1,0,5.67,0v-52h17l-5.73-5.73Z"/>
	<path class="cls-1" d="M133.55,30.44V8.37c0-4.67,0-6.49-6.54-6.59s-6.46,1.92-6.46,6.59V95.54a2.84,2.84,0,1,0,5.67,0V10.83c0-2.92,0-3.22.79-3.22s.88.3.88,3.22V36.11h15.22l-5.65-5.65Z"/>
	<path class="cls-1" d="M325.79,59V95.66a2.84,2.84,0,1,0,5.67,0V56.49c0-4.67,0-6.49-6.54-6.59s-6.46,1.92-6.46,6.59V95.66a2.84,2.84,0,1,0,5.67,0V59c0-2.92,0-3.22.79-3.22S325.79,56,325.79,59Z"/>
	<path class="cls-1" d="M324.15,43.63l0,.85a2.87,2.87,0,1,1-5.72-.06l.11-3.31c.05-4.67.06-6.49,6.62-6.52s6.44,2,6.38,6.66l0,3.38a2.84,2.84,0,1,1-5.67-.06v-.92c0-2.92,0-3.22-.75-3.23S324.18,40.72,324.15,43.63Z"/>
	<path class="cls-1" d="M377.2,95.69a2.84,2.84,0,1,0,5.67,0v-19a21.21,21.21,0,0,0-21.21-21.21L348,55.42c-2.77,0-2.9,0-2.89,2.93V95.6a2.84,2.84,0,1,0,5.67,0V64.51c0-2.92.5-3.12,1.67-3.12l9.19-.13A15.44,15.44,0,0,1,377,76.7Z"/>
	<path class="cls-1" d="M385.45,95.6a2.84,2.84,0,1,0,5.67,0V76.77a28.83,28.83,0,0,0-28.83-28.83s-11.28,0-18.46,0c-4.08,0-6.37,1.92-6.37,6.58V95.69a2.84,2.84,0,1,0,5.67,0V57c0-2.92,0-3.22,3-3.22l16.21.1a22.91,22.91,0,0,1,22.91,22.91Z"/>
	<path class="cls-1" d="M431.87,95.63a2.84,2.84,0,1,0,5.67,0v-19c0-11.72-6.5-21.21-18.21-21.21l-10.62-.07c-2.77,0-2.9,0-2.89,2.93V95.53a2.84,2.84,0,1,0,5.67,0V64.45c0-2.92.5-3.12,1.67-3.12l6.19-.13c8.5,0,12.37,6.93,12.37,15.44Z"/>
	<path class="cls-1" d="M440.12,95.53a2.84,2.84,0,1,0,5.67,0V76.71c0-15.92-9.91-28.83-25.83-28.83,0,0-8.28,0-15.46,0-4.08,0-6.37,1.92-6.37,6.58V95.63a2.84,2.84,0,1,0,5.67,0V56.92c0-2.92,0-3.22,3-3.22l13.21.1c12.65,0,19.91,10.26,19.91,22.91Z"/>
	<path class="cls-1" d="M452.59,55.42a19.61,19.61,0,0,0-10.07,2.83,28.81,28.81,0,0,1,2.81,5.16,14.23,14.23,0,0,1,7.26-2.21c8.5,0,12.37,6.93,12.37,15.44l.17,19a2.84,2.84,0,1,0,5.67,0v-19C470.8,64.92,464.3,55.42,452.59,55.42Z"/>
	<path class="cls-1" d="M453.21,47.88H452a24.63,24.63,0,0,0-14.52,4.47,24.06,24.06,0,0,1,4.17,4.41A20.37,20.37,0,0,1,452,53.8h1.25c12.65,0,19.91,10.26,19.91,22.91l.26,18.82a2.84,2.84,0,1,0,5.67,0V76.71C479,60.79,469.14,47.88,453.21,47.88Z"/>
	<path class="cls-1" d="M535.21,68.62a23.12,23.12,0,1,1-3.39-10.8l-33,10a13,13,0,0,0,.62,5.91l40.22-12.17A28.77,28.77,0,1,0,540.73,67Z"/>
	<path class="cls-1" d="M527.31,71A15.18,15.18,0,1,1,507.78,55.2a15.66,15.66,0,0,1,7.09-.42c-7.29.48-12.71,3.55-15.54,10.83l29.38-8.93a21.26,21.26,0,1,0,4.62,12.51Z"/>
	<path class="cls-1" d="M586.19,95.69a2.84,2.84,0,1,0,5.67,0v-19a21.21,21.21,0,0,0-21.21-21.21L557,55.42c-2.77,0-2.9,0-2.89,2.93V95.6a2.84,2.84,0,1,0,5.67,0V64.51c0-2.92.5-3.12,1.67-3.12l9.19-.13A15.44,15.44,0,0,1,586,76.7Z"/>
	<path class="cls-1" d="M594.44,95.6a2.84,2.84,0,1,0,5.67,0V76.77a28.83,28.83,0,0,0-28.83-28.83s-11.28,0-18.46,0c-4.08,0-6.37,1.92-6.37,6.58V95.69a2.84,2.84,0,1,0,5.67,0V57c0-2.92,0-3.22,3-3.22l16.21.1a22.91,22.91,0,0,1,22.91,22.91Z"/>
	<path class="cls-1" d="M613.36,38V95.69a2.84,2.84,0,1,0,5.67,0v-52h17l-5.73-5.73Z"/>
	<path class="cls-1" d="M619,30.6V8.52c0-4.67,0-6.49-6.54-6.59S606,3.85,606,8.52V95.69a2.84,2.84,0,1,0,5.67,0V11c0-2.92,0-3.22.79-3.22s.88.3.88,3.22V36.26h15.22l-5.65-5.65Z"/><path class="cls-1" d="M306.43,95.54a2.84,2.84,0,1,0,5.67,0V53.6c0-4.67,0-6.49-6.54-6.59H285.79a25.1,25.1,0,0,0,0,50.21h11.37V91.48c-1.93,0-6.56-.05-11.63-.05a19.05,19.05,0,0,1,0-38.11l20,.05c.83,0,.88.3.88,3.22Z"/>
	<path class="cls-1" d="M299.1,95.54a2.84,2.84,0,1,0,5.67,0V58.2c0-2.93-.12-2.93-2.89-2.93H285.61a17.18,17.18,0,0,0,0,34.36l11.53,0,0-5.92-11.55.12a11.43,11.43,0,0,1,0-22.86l11.83.22c1.17,0,1.67.21,1.67,3.13Z"/>
</svg>