<svg id="Layer_1" data-name="Layer 1" xmlns="http://www.w3.org/2000/svg" viewBox="0 0 18 123"><defs><style>.cls-1{fill:#471ca5;}</style></defs><title>i</title><path class="cls-1" d="M9.79,59V95.66a2.84,2.84,0,1,0,5.67,0V56.49c0-4.67,0-6.49-6.54-6.59s-6.46,1.92-6.46,6.59V95.66a2.84,2.84,0,1,0,5.67,0V59c0-2.92,0-3.22.79-3.22S9.79,56,9.79,59Z"/><path class="cls-1" d="M8.15,43.63v.85a2.87,2.87,0,1,1-5.72-.06l.11-3.31c0-4.67.06-6.49,6.62-6.52s6.44,2,6.38,6.66v3.38a2.84,2.84,0,1,1-5.67-.06v-.92c0-2.92,0-3.22-.75-3.23S8.18,40.72,8.15,43.63Z"/></svg>