<svg id="Layer_1" data-name="Layer 1" xmlns="http://www.w3.org/2000/svg" viewBox="0 0 123.14 117.54"><defs><style>.cls-1{fill:#fff;}</style></defs><title>logo-white</title><path class="cls-1" d="M44.7,63.8a23,23,0,1,1,7.8-8.2l-24.9-24A12.76,12.76,0,0,0,22.7,35L53,64.2a28.79,28.79,0,1,0-4.2,3.6Z" transform="translate(-3.49 -15.36)"/><path class="cls-1" d="M38.7,58a15.17,15.17,0,1,1,4.2-24.7,15.75,15.75,0,0,1,3.8,6c-4-6.1-9.3-9.4-17-8.3L51.8,52.3a21,21,0,1,0-8.5,10.1Z" transform="translate(-3.49 -15.36)"/><path class="cls-1" d="M78.2,56.3A23.12,23.12,0,1,1,110,63.9a23.38,23.38,0,0,1-23.7.3l24.3-24.5a12.87,12.87,0,0,0-3.3-4.9L77.6,64.6a28.79,28.79,0,1,0-3.5-4.2Z" transform="translate(-3.49 -15.36)"/><path class="cls-1" d="M84,50.5a15.21,15.21,0,1,1,27.9-12.1,15,15,0,0,1-3.2,16.7,14.42,14.42,0,0,1-6,3.7c6.2-3.9,9.5-9.2,8.6-16.9L89.6,63.8a21.42,21.42,0,1,0-10-8.9Z" transform="translate(-3.49 -15.36)"/><path class="cls-1" d="M70.4,81.5A23.14,23.14,0,1,1,42.7,98.9,22.86,22.86,0,0,1,59,81.8l.5,34.5a12.9,12.9,0,0,0,5.9,1l-.5-42a29.08,29.08,0,1,0,5.5.5Z" transform="translate(-3.49 -15.36)"/><path class="cls-1" d="M70.5,89.8a15.16,15.16,0,1,1-20.6,14.3,14.89,14.89,0,0,1,1.6-6.9c-1.6,7.1-.1,13.2,6.1,17.9l-.4-30.7A21.27,21.27,0,1,0,85,95.9,21.63,21.63,0,0,0,70.5,83.4Z" transform="translate(-3.49 -15.36)"/></svg>