<svg id="Layer_1" data-name="Layer 1" xmlns="http://www.w3.org/2000/svg" viewBox="0 0 130 130"><defs><style>.cls-1{fill:#471ca5;}</style></defs><title>logo</title><path class="cls-1" d="M44.68,55.75a23.12,23.12,0,1,1,7.78-8.23L27.6,23.59A13,13,0,0,0,22.74,27L53,56.17a28.77,28.77,0,1,0-4.17,3.58Z"/><path class="cls-1" d="M38.73,50A15.18,15.18,0,1,1,43,25.26a15.66,15.66,0,0,1,3.82,6c-4-6.13-9.3-9.36-17-8.28L51.93,44.24a21.26,21.26,0,1,0-8.66,10.14Z"/><path class="cls-1" d="M78.18,48.32a23.12,23.12,0,1,1,8.1,7.91l24.33-24.47a13,13,0,0,0-3.34-4.91L77.62,56.62A28.77,28.77,0,1,0,74.1,52.4Z"/><path class="cls-1" d="M84,42.46a15.18,15.18,0,1,1,24.69,4.69,15.66,15.66,0,0,1-6,3.73c6.19-3.88,9.52-9.15,8.56-16.9L89.56,55.75a21.26,21.26,0,1,0-10-8.82Z"/><path class="cls-1" d="M70.37,73.5A23.12,23.12,0,1,1,59,73.75l.45,34.5a13,13,0,0,0,5.85,1l-.52-42a28.77,28.77,0,1,0,5.48.45Z"/><path class="cls-1" d="M70.48,81.76A15.18,15.18,0,1,1,49.86,96.11a15.66,15.66,0,0,1,1.57-6.92c-1.56,7.14-.12,13.2,6.08,17.94l-.41-30.7a21.26,21.26,0,1,0,13.3-1Z"/></svg>