<?xml version="1.0" encoding="utf-8"?>
<!-- Generator: Adobe Illustrator 21.1.0, SVG Export Plug-In . SVG Version: 6.00 Build 0)  -->
<svg version="1.1" id="Layer_1" xmlns="http://www.w3.org/2000/svg" xmlns:xlink="http://www.w3.org/1999/xlink" x="0px" y="0px"
	 viewBox="0 0 130 130" style="enable-background:new 0 0 130 130;" xml:space="preserve">
<style type="text/css">
	.st0{fill:#471CA5;}
</style>
<title>logo</title>
<path class="st0" d="M44.7,63.8c-10.8,6.8-25.1,3.7-31.9-7.1s-3.7-25.1,7.1-31.9s25.1-3.7,31.9,7.1c4.6,7.2,4.8,16.3,0.7,23.7
	L27.6,31.6c-1.9,0.7-3.5,1.9-4.9,3.4L53,64.2c11-11.5,10.7-29.7-0.8-40.7s-29.7-10.7-40.7,0.8S0.9,54,12.3,65
	c9.9,9.6,25.2,10.7,36.5,2.8L44.7,63.8z"/>
<path class="st0" d="M38.7,58c-7.6,3.5-16.6,0.1-20.1-7.5s-0.1-16.6,7.5-20.1c5.7-2.6,12.3-1.4,16.8,2.9c1.7,1.7,3,3.7,3.8,6
	c-4-6.1-9.3-9.4-17-8.3l22.1,21.3c4.4-10.9-0.8-23.3-11.6-27.7S17,25.3,12.6,36.2s0.8,23.3,11.6,27.7c6.2,2.5,13.3,2,19.1-1.5
	L38.7,58z"/>
<path class="st0" d="M78.2,56.3c-6.7-10.9-3.3-25.1,7.6-31.8s25.1-3.3,31.8,7.6c6.7,10.9,3.3,25.1-7.6,31.8
	c-7.2,4.4-16.3,4.5-23.7,0.3l24.3-24.5c-0.7-1.9-1.9-3.6-3.3-4.9L77.6,64.6c11.3,11.2,29.5,11.1,40.7-0.2s11.1-29.5-0.2-40.7
	s-29.5-11.1-40.7,0.2c-9.7,9.8-11.1,25.1-3.3,36.5L78.2,56.3z"/>
<path class="st0" d="M84,50.5c-3.3-7.7,0.2-16.6,7.9-20s16.6,0.2,20,7.9c2.5,5.7,1.2,12.3-3.2,16.7c-1.7,1.7-3.7,3-6,3.7
	c6.2-3.9,9.5-9.2,8.6-16.9L89.6,63.8c10.8,4.6,23.3-0.4,27.9-11.2c4.6-10.8-0.4-23.3-11.2-27.9S83,25,78.4,35.8
	c-2.6,6.2-2.2,13.3,1.2,19.1L84,50.5z"/>
<path class="st0" d="M70.4,81.5c12.4,2.9,20.2,15.3,17.3,27.7S72.4,129.4,60,126.6c-12.4-2.9-20.2-15.3-17.3-27.7
	C44.6,90.6,50.8,84,59,81.8l0.5,34.5c1.8,0.8,3.8,1.1,5.9,1l-0.5-42c-15.9,0.2-28.6,13.3-28.4,29.2s13.3,28.6,29.2,28.4
	s28.6-13.3,28.4-29.2c-0.2-13.8-10.1-25.5-23.7-27.9L70.4,81.5z"/>
<path class="st0" d="M70.5,89.8c7.8,3,11.7,11.8,8.7,19.6s-11.8,11.7-19.6,8.7c-5.8-2.2-9.7-7.8-9.7-14c0-2.4,0.5-4.8,1.6-6.9
	c-1.6,7.1-0.1,13.2,6.1,17.9l-0.4-30.7c-10.8,4.5-16,17-11.5,27.8s17,16,27.8,11.5c10.8-4.5,16-17,11.5-27.8
	c-2.6-6.2-8-10.8-14.5-12.5L70.5,89.8z"/>
</svg>
