<svg id="Layer_1" data-name="Layer 1" xmlns="http://www.w3.org/2000/svg" viewBox="0 0 85 123"><defs><style>.cls-1{fill:#471ca5;}</style></defs><title>m</title><path class="cls-1" d="M35.87,95.63a2.84,2.84,0,1,0,5.67,0v-19c0-11.72-6.5-21.21-18.21-21.21l-10.62-.07c-2.77,0-2.9,0-2.89,2.93V95.53a2.84,2.84,0,1,0,5.67,0V64.45c0-2.92.5-3.12,1.67-3.12l6.19-.13c8.5,0,12.37,6.93,12.37,15.44Z"/><path class="cls-1" d="M44.12,95.53a2.84,2.84,0,1,0,5.67,0V76.71c0-15.92-9.91-28.83-25.83-28.83H8.5c-4.08,0-6.37,1.92-6.37,6.58V95.63a2.84,2.84,0,1,0,5.67,0V56.92c0-2.92,0-3.22,3-3.22L24,53.8c12.65,0,19.91,10.26,19.91,22.91Z"/><path class="cls-1" d="M56.59,55.42a19.61,19.61,0,0,0-10.07,2.83,28.81,28.81,0,0,1,2.81,5.16,14.23,14.23,0,0,1,7.26-2.21C65.09,61.2,69,68.13,69,76.64l.17,19a2.84,2.84,0,1,0,5.67,0v-19C74.8,64.92,68.3,55.42,56.59,55.42Z"/><path class="cls-1" d="M57.21,47.88H56a24.63,24.63,0,0,0-14.52,4.47,24.06,24.06,0,0,1,4.17,4.41A20.37,20.37,0,0,1,56,53.8h1.25c12.65,0,19.91,10.26,19.91,22.91l.26,18.82a2.84,2.84,0,1,0,5.67,0V76.71C83,60.79,73.14,47.88,57.21,47.88Z"/></svg>