<svg id="Layer_1" data-name="Layer 1" xmlns="http://www.w3.org/2000/svg" viewBox="0 0 57 123"><defs><style>.cls-1{fill:#471ca5;}</style></defs><title>n</title><path class="cls-1" d="M41.53,95.69a2.84,2.84,0,1,0,5.67,0v-19A21.21,21.21,0,0,0,26,55.49l-13.62-.07c-2.77,0-2.9,0-2.89,2.93V95.6a2.84,2.84,0,1,0,5.67,0V64.51c0-2.92.5-3.12,1.67-3.12L26,61.26A15.44,15.44,0,0,1,41.35,76.7Z"/><path class="cls-1" d="M49.77,95.6a2.84,2.84,0,1,0,5.67,0V76.77A28.83,28.83,0,0,0,26.61,47.94H8.14c-4.08,0-6.38,1.92-6.38,6.58V95.69a2.84,2.84,0,1,0,5.67,0V57c0-2.92,0-3.22,3-3.22l16.21.1A22.91,22.91,0,0,1,49.55,76.79Z"/></svg>