<svg id="Layer_1" data-name="Layer 1" xmlns="http://www.w3.org/2000/svg" viewBox="0 0 153 123"><defs><style>.cls-1{fill:#471ca5;}</style></defs><title>poly</title><path class="cls-1" d="M28.18,1.95S16.9,2,9.72,1.95c-4.08,0-6.37,1.92-6.37,6.58V95.7A2.84,2.84,0,1,0,9,95.7V11c0-2.92,0-3.22,3-3.22l16.21.1a22.91,22.91,0,0,1,0,45.81l-9.58,0v5.91h9.58a28.83,28.83,0,0,0,0-57.67Z"/><path class="cls-1" d="M18.6,51.89l9,0a21.21,21.21,0,1,0,0-42.43L13.93,9.42c-2.77,0-2.9,0-2.89,2.93V95.6a2.84,2.84,0,1,0,5.67,0V18.52c0-2.92.5-3.12,1.67-3.12l9.19-.13a15.44,15.44,0,0,1,0,30.88h-9Z"/><path class="cls-1" d="M63.77,49.19A24.71,24.71,0,1,0,88.48,73.89,24.71,24.71,0,0,0,63.77,49.19ZM63.65,92.1A18.58,18.58,0,1,1,82.23,73.52,18.58,18.58,0,0,1,63.65,92.1Z"/><path class="cls-1" d="M63.73,56.74A16.65,16.65,0,1,0,80.38,73.39,16.65,16.65,0,0,0,63.73,56.74Zm.28,27A10.55,10.55,0,1,1,74.56,73.15,10.55,10.55,0,0,1,64,83.7Z"/><path class="cls-1" d="M98.27,11V95.7a2.84,2.84,0,1,0,5.67,0V8.53c0-4.67,0-6.49-6.54-6.59s-6.46,1.92-6.46,6.59V95.7a2.84,2.84,0,1,0,5.67,0V11c0-2.92,0-3.22.79-3.22S98.27,8.07,98.27,11Z"/><path class="cls-1" d="M112.87,56a3.06,3.06,0,1,0-6.1,0l.06,17.4c0,13.65,7.05,25.46,20.7,25.46a20.13,20.13,0,0,0,6.78-1.1c0,5-1.05,9-8.16,9H106.71l6.09,6.15h10.93c14.08,0,16.4-2.79,16.43-29.2-2.14,5.17-6.26,8.65-12.76,8.65-10.26,0-14.58-8.69-14.58-19Z"/><path class="cls-1" d="M140.15,55.86a2.94,2.94,0,1,0-5.86,0V73.41c0,5.83-.72,10.55-6.55,10.55s-6.55-4.72-6.55-10.55l0-17.31a3.17,3.17,0,1,0-6.32,0l0,17.3c0,9.19,3.45,16.89,12.65,16.89s12.65-7.7,12.65-16.89Z"/><path class="cls-1" d="M148.17,56.06a3.11,3.11,0,1,0-6.21,0l0,17.35c0,2.84,0,17.79,0,22.21,0,12.15-3,19.46-15.76,19.46,0,0-11.26,0-11.26,0l6.09,6.15s5.17,0,5.17,0c20.13,0,22-16.21,22-25.6,0-3.58,0-15.5,0-22.21C148.19,73.54,148.17,56.06,148.17,56.06Z"/></svg>